<svg width="20" height="15" viewBox="0 0 20 15" fill="none" xmlns="http://www.w3.org/2000/svg">
<path d="M3.04335 1.25244C0.784605 4.48414 -0.330893 8.1294 0.0861073 12.3259C0.0878582 12.3437 0.0973587 12.36 0.112358 12.3707C1.82285 13.5929 3.4801 14.3347 5.1141 14.8266C5.12682 14.8303 5.14044 14.8301 5.15303 14.826C5.16563 14.8218 5.17658 14.814 5.18435 14.8035C5.56185 14.2923 5.90485 13.7535 6.20535 13.1876C6.2226 13.1543 6.20685 13.1142 6.17135 13.101C5.6266 12.9013 5.1086 12.6619 4.61035 12.3785C4.5711 12.3561 4.5686 12.3014 4.60485 12.2751C4.7106 12.1987 4.81535 12.1184 4.9156 12.0381C4.93435 12.0233 4.9596 12.0204 4.98085 12.0304C8.21559 13.4839 11.7591 13.4839 15.0321 12.0304C15.0533 12.0211 15.0786 12.0243 15.0968 12.0389C15.1968 12.1192 15.3018 12.1987 15.4066 12.2751C15.4428 12.3014 15.4398 12.3561 15.4003 12.3785C14.9021 12.6565 14.3841 12.9013 13.8401 13.102C13.8048 13.1151 13.7881 13.1543 13.8056 13.1876C14.0996 13.7542 14.4426 14.2931 14.8271 14.8042C14.8438 14.8249 14.8713 14.8344 14.8973 14.8266C16.5236 14.3347 18.1808 13.5929 19.8913 12.3707C19.9056 12.36 19.9158 12.343 19.9173 12.3252C20.2658 8.69527 19.5556 5.01983 16.9628 1.25171C16.9566 1.24174 16.9471 1.23395 16.9361 1.22933C15.6603 0.659577 14.2936 0.24041 12.8651 0.00102554C12.8391 -0.0028669 12.8131 0.00881041 12.7996 0.0311919C12.6231 0.335288 12.4213 0.725262 12.2848 1.04395C10.7791 0.82014 9.24984 0.82014 7.71259 1.04395C7.57609 0.732074 7.38135 0.335288 7.2056 0.0311919C7.19934 0.0200887 7.18963 0.0111934 7.17787 0.00577596C7.16611 0.000358522 7.15289 -0.00130407 7.1401 0.00102554C5.71085 0.24114 4.3441 0.660307 3.06935 1.22933C3.0581 1.23395 3.04885 1.24174 3.04335 1.25244ZM11.5193 8.15422C11.5036 7.08112 12.3076 6.19316 13.3168 6.19316C14.3178 6.19316 15.1141 7.07334 15.1141 8.15422C15.1141 9.23486 14.3021 10.115 13.3168 10.115C12.3156 10.115 11.5193 9.23486 11.5193 8.15422ZM4.87385 8.15422C4.8581 7.08112 5.6621 6.19316 6.6711 6.19316C7.67235 6.19316 8.46859 7.07334 8.46859 8.15422C8.46859 9.23486 7.6566 10.115 6.6711 10.115C5.6621 10.115 4.87385 9.23486 4.87385 8.15422Z" fill="#BD1A3F"/>
</svg>
