<svg width="20" height="17" viewBox="0 0 20 17" fill="none" xmlns="http://www.w3.org/2000/svg">
<path d="M20 1.92961C19.2642 2.25797 18.4718 2.47688 17.643 2.57822C18.492 2.06744 19.1389 1.26074 19.4461 0.304036C18.6537 0.770224 17.7764 1.1148 16.8425 1.29722C16.0946 0.498619 15.0273 0 13.8468 0C11.5787 0 9.74328 1.84043 9.74328 4.11462C9.74328 4.43892 9.77966 4.75107 9.84839 5.05105C6.44027 4.88079 3.41621 3.24305 1.39074 0.754009C1.03901 1.36208 0.836871 2.06744 0.836871 2.82145C0.836871 4.24839 1.56054 5.50913 2.6602 6.24692C1.98908 6.22665 1.35436 6.04018 0.800485 5.73209C0.800485 5.7483 0.800485 5.76452 0.800485 5.78479C0.800485 7.77926 2.21548 9.44132 4.09137 9.81833C3.74773 9.91157 3.38387 9.96426 3.01193 9.96426C2.74914 9.96426 2.4904 9.93994 2.23974 9.8913C2.76127 11.525 4.27734 12.7168 6.07237 12.7492C4.6695 13.8519 2.89873 14.5086 0.978371 14.5086C0.646857 14.5086 0.319385 14.4883 0 14.4518C1.81524 15.6193 3.97413 16.3004 6.29068 16.3004C13.8387 16.3004 17.9664 10.0332 17.9664 4.59297C17.9664 4.4146 17.9624 4.23623 17.9543 4.06192C18.7548 3.47817 19.4502 2.75254 20 1.92961Z" fill="#BD1A3F"/>
</svg>
