<svg width="48" height="51" viewBox="0 0 48 51" fill="none" xmlns="http://www.w3.org/2000/svg">
    <path d="M24.17 50.4638C37.331 50.4638 48.0002 39.7947 48.0002 26.6336C48.0002 13.4726 37.331 2.80347 24.17 2.80347C11.009 2.80347 0.339844 13.4726 0.339844 26.6336C0.339844 39.7947 11.009 50.4638 24.17 50.4638Z" fill="#F4900C"/>
    <path d="M24.17 47.6603C37.331 47.6603 48.0002 36.9912 48.0002 23.8302C48.0002 10.6691 37.331 0 24.17 0C11.009 0 0.339844 10.6691 0.339844 23.8302C0.339844 36.9912 11.009 47.6603 24.17 47.6603Z" fill="#FFCC4D"/>
    <path d="M24.1698 44.8568C35.0083 44.8568 43.7946 36.0705 43.7946 25.232C43.7946 14.3935 35.0083 5.60718 24.1698 5.60718C13.3313 5.60718 4.54492 14.3935 4.54492 25.232C4.54492 36.0705 13.3313 44.8568 24.1698 44.8568Z" fill="#FFE8B6"/>
    <path d="M24.1698 43.455C35.0083 43.455 43.7946 34.6687 43.7946 23.8302C43.7946 12.9917 35.0083 4.20532 24.1698 4.20532C13.3313 4.20532 4.54492 12.9917 4.54492 23.8302C4.54492 34.6687 13.3313 43.455 24.1698 43.455Z" fill="#FFAC33"/>
    <path d="M12.3149 15.2178C12.3149 14.4538 13.0649 14.1482 13.0649 14.1482L24.1081 8.96167L35.2564 14.1482C35.2564 14.1482 36.0245 14.3192 36.0245 15.2234V16.1219H12.3149V15.2178Z" fill="#FFE8B6"/>
    <path d="M35.2846 17.9931C35.2846 17.1745 34.5767 16.5115 33.7048 16.5115H14.5384C13.6651 16.5115 13.0567 17.1745 13.0567 17.9931C13.0567 18.5497 13.3427 19.0291 13.7982 19.2828V20.2164H16.7616V19.4748H19.7249V20.2164H22.6883V19.4748H25.6516V20.2164H28.615V19.4748H31.5783V20.2164H34.5431V19.2449C34.9875 18.9814 35.2846 18.5202 35.2846 17.9931ZM37.5064 33.6426C37.5064 34.2565 37.0088 34.7542 36.3948 34.7542H11.9451C11.3311 34.7542 10.8335 34.2565 10.8335 33.6426C10.8335 33.0286 11.3311 32.5309 11.9451 32.5309H36.3962C37.0088 32.5309 37.5064 33.0286 37.5064 33.6426Z" fill="#F4900C"/>
    <path d="M36.025 17.1014C36.025 17.5107 35.6942 17.8429 35.2834 17.8429H13.0555C12.6462 17.8429 12.314 17.5107 12.314 17.1014C12.314 16.6921 12.6462 16.3599 13.0555 16.3599L35.2834 16.3641C35.6942 16.3655 36.025 16.6921 36.025 17.1014ZM16.0203 17.9621H32.3215V19.6246H16.0203V17.9621Z" fill="#F4900C"/>
    <path d="M16.7602 29.1977C16.7602 30.0163 16.3172 30.6793 15.7719 30.6793H14.7837C14.2384 30.6793 13.7954 30.0163 13.7954 29.1977V17.9639C13.7954 17.1452 14.2384 16.4822 14.7837 16.4822H15.7719C16.3172 16.4822 16.7602 17.1452 16.7602 17.9639V29.1977ZM34.5431 29.1977C34.5431 30.0163 34.1015 30.6793 33.5548 30.6793H32.5666C32.0213 30.6793 31.5783 30.0163 31.5783 29.1977V17.9639C31.5783 17.1452 32.0199 16.4822 32.5666 16.4822H33.5548C34.1001 16.4822 34.5431 17.1452 34.5431 17.9639V29.1977ZM22.6883 29.1977C22.6883 30.0163 22.2453 30.6793 21.7 30.6793H20.7118C20.1665 30.6793 19.7235 30.0163 19.7235 29.1977V17.9639C19.7235 17.1452 20.1665 16.4822 20.7118 16.4822H21.7C22.2453 16.4822 22.6883 17.1452 22.6883 17.9639V29.1977ZM28.615 29.1977C28.615 30.0163 28.172 30.6793 27.6267 30.6793H26.6399C26.0946 30.6793 25.6516 30.0163 25.6516 29.1977V17.9639C25.6516 17.1452 26.0946 16.4822 26.6399 16.4822H27.6267C28.172 16.4822 28.615 17.1452 28.615 17.9639V29.1977Z" fill="#FFD983"/>
    <path d="M35.2846 29.9377C35.2846 30.7564 34.6215 31.4194 33.8029 31.4194H14.5383C13.7197 31.4194 13.0566 30.7564 13.0566 29.9377C13.0566 29.1191 13.7197 28.4561 14.5383 28.4561H33.8029C34.6201 28.4561 35.2846 29.1191 35.2846 29.9377Z" fill="#FFCC4D"/>
    <path d="M36.7669 31.4192C36.7669 32.2378 36.1039 32.9009 35.2852 32.9009H13.0559C12.2373 32.9009 11.5742 32.2378 11.5742 31.4192C11.5742 30.6005 12.2373 29.9375 13.0559 29.9375H35.2838C36.1025 29.9375 36.7669 30.6005 36.7669 31.4192Z" fill="#FFD983"/>
    <path d="M37.5064 32.531C37.5064 33.145 37.0088 33.6426 36.3948 33.6426H11.9451C11.3311 33.6426 10.8335 33.145 10.8335 32.531C10.8335 31.9171 11.3311 31.4194 11.9451 31.4194H36.3962C37.0088 31.4194 37.5064 31.9171 37.5064 32.531Z" fill="#FFD983"/>
    <path d="M35.2846 17.2222C35.2846 16.4035 34.5767 15.7405 33.7048 15.7405H14.5383C13.665 15.7405 13.0566 16.4035 13.0566 17.2222C13.0566 17.7787 13.3426 18.2581 13.7982 18.5118V19.4454H16.7615V18.7038H19.7249V19.4454H22.6882V18.7038H25.6516V19.4454H28.6149V18.7038H31.5783V19.4454H34.543V18.4739C34.9874 18.2104 35.2846 17.7492 35.2846 17.2222Z" fill="#FFCC4D"/>
    <path d="M12.3149 16.0684C12.3149 15.3044 13.0649 14.9988 13.0649 14.9988L24.1081 9.81226L35.2564 14.9988C35.2564 14.9988 36.0245 15.1698 36.0245 16.074V16.4819H12.3149V16.0684Z" fill="#FFD983"/>
    <path d="M24.1704 11.6948C24.1704 11.6948 16.5237 15.2988 15.7612 15.624C14.9972 15.9478 15.2523 16.4805 15.7626 16.4805H32.5418C33.3296 16.4805 33.1432 15.8791 32.518 15.5539C31.8928 15.2301 24.1704 11.6948 24.1704 11.6948Z" fill="#FFAC33"/>
    <path d="M36.025 16.4808C36.025 16.8901 35.6942 17.2223 35.2834 17.2223H13.0555C12.6462 17.2223 12.314 16.8901 12.314 16.4808C12.314 16.0715 12.6462 15.7393 13.0555 15.7393L35.2834 15.7435C35.6942 15.7449 36.025 16.0715 36.025 16.4808Z" fill="#FFD983"/>
</svg>